<svg xmlns="http://www.w3.org/2000/svg" viewBox="0 0 680 196" font-family="system-ui, -apple-system, Segoe UI, sans-serif" font-size="13">
<style>.h{paint-order:stroke;stroke:#fff;stroke-width:4px;stroke-linejoin:round}</style>
<defs><marker id="arrow" viewBox="0 0 10 10" refX="9" refY="5" markerWidth="6" markerHeight="6" orient="auto-start-reverse"><path d="M0,0 L10,5 L0,10 z" fill="#2f9e6e"/></marker><pattern id="hatch" width="6" height="6" patternUnits="userSpaceOnUse" patternTransform="rotate(45)"><rect width="6" height="6" fill="#ffffff" fill-opacity="0.5"/><rect width="2.5" height="6" fill="#8a8f98" fill-opacity="0.7"/></pattern></defs>
<rect width="680" height="196" rx="8" fill="#ffffff"/>
<rect x="118" y="48" width="550" height="16" rx="2" fill="#f1f3f5"/>
<rect x="118" y="92" width="550" height="16" rx="2" fill="#f1f3f5"/>
<rect x="118" y="136" width="550" height="16" rx="2" fill="#f1f3f5"/>
<rect x="131.8" y="48" width="39.0" height="16" rx="2" fill="#2f6fdb"/>
<rect x="206.7" y="48" width="30.9" height="16" rx="2" fill="#2f6fdb"/>
<rect x="294.0" y="48" width="27.7" height="16" rx="2" fill="#2f6fdb"/>
<rect x="363.1" y="48" width="49.7" height="16" rx="2" fill="#2f6fdb"/>
<rect x="436.7" y="48" width="41.2" height="16" rx="2" fill="#2f6fdb"/>
<rect x="524.0" y="48" width="28.5" height="16" rx="2" fill="#2f6fdb"/>
<rect x="588.8" y="48" width="44.9" height="16" rx="2" fill="#2f6fdb"/>
<rect x="131.8" y="92" width="29.5" height="16" rx="2" fill="#e07b39"/>
<rect x="179.7" y="92" width="32.4" height="16" rx="2" fill="#e07b39"/>
<rect x="233.3" y="92" width="31.5" height="16" rx="2" fill="#e07b39"/>
<rect x="285.7" y="92" width="19.7" height="16" rx="2" fill="#e07b39"/>
<rect x="320.1" y="92" width="34.8" height="16" rx="2" fill="#e07b39"/>
<rect x="372.1" y="92" width="34.1" height="16" rx="2" fill="#e07b39"/>
<rect x="416.0" y="92" width="27.0" height="16" rx="2" fill="#e07b39"/>
<rect x="454.6" y="92" width="28.2" height="16" rx="2" fill="#e07b39"/>
<rect x="499.0" y="92" width="19.5" height="16" rx="2" fill="#e07b39"/>
<rect x="529.7" y="92" width="23.9" height="16" rx="2" fill="#e07b39"/>
<rect x="574.4" y="92" width="31.9" height="16" rx="2" fill="#e07b39"/>
<rect x="616.7" y="92" width="32.4" height="16" rx="2" fill="#e07b39"/>
<rect x="131.8" y="136" width="29.5" height="16" rx="2" fill="#e07b39"/>
<rect x="179.7" y="136" width="32.4" height="16" rx="2" fill="#e07b39"/>
<rect x="233.3" y="136" width="31.5" height="16" rx="2" fill="#e07b39"/>
<rect x="285.7" y="136" width="19.7" height="16" rx="2" fill="#e07b39"/>
<rect x="320.1" y="136" width="34.8" height="16" rx="2" fill="#e07b39"/>
<rect x="372.1" y="136" width="34.1" height="16" rx="2" fill="#e07b39"/>
<rect x="416.0" y="136" width="27.0" height="16" rx="2" fill="#e07b39"/>
<rect x="454.6" y="136" width="28.2" height="16" rx="2" fill="#e07b39"/>
<rect x="499.0" y="136" width="19.5" height="16" rx="2" fill="#e07b39"/>
<rect x="529.7" y="136" width="23.9" height="16" rx="2" fill="#e07b39"/>
<rect x="574.4" y="136" width="31.9" height="16" rx="2" fill="#e07b39"/>
<rect x="616.7" y="136" width="32.4" height="16" rx="2" fill="#e07b39"/>
<rect x="263.0" y="179" width="10" height="10" rx="2" fill="#2f6fdb"/>
<rect x="335.0" y="179" width="10" height="10" rx="2" fill="#e07b39"/>
<rect x="431.0" y="179" width="10" height="10" rx="2" fill="#2f9e6e"/>
<text x="10.0" y="20.0" text-anchor="start" class="h" fill="#1f2328" font-size="14" font-weight="600">5. Wrong reference: the director's commentary</text>
<text x="10.0" y="60.0" text-anchor="start" class="h" fill="#1f2328" font-size="12" font-weight="600">Reference (EN)</text>
<text x="10.0" y="104.0" text-anchor="start" class="h" fill="#1f2328" font-size="12" font-weight="600">External (FR)</text>
<text x="10.0" y="148.0" text-anchor="start" class="h" fill="#1f2328" font-size="12" font-weight="600">Result (FR)</text>
<text x="301.7" y="43.0" text-anchor="middle" class="h" fill="#1f2328" font-size="11" font-weight="400">“This was the very first scene we filmed.”</text>
<text x="301.7" y="84.0" text-anchor="middle" class="h" fill="#c4302b" font-size="18" font-weight="700">≠</text>
<text x="301.7" y="121.0" text-anchor="middle" class="h" fill="#1f2328" font-size="11" font-weight="400">“Il y a quelqu'un là-haut ?”</text>
<text x="668.0" y="170.0" text-anchor="end" class="h" fill="#c4302b" font-size="12" font-weight="600">no line matches: the file is left as it is</text>
<text x="118.0" y="188.0" text-anchor="middle" class="h" fill="#57606a" font-size="11" font-weight="400">0 s</text>
<text x="668.0" y="188.0" text-anchor="middle" class="h" fill="#57606a" font-size="11" font-weight="400">40 s</text>
<text x="277.0" y="188.0" text-anchor="start" class="h" fill="#57606a" font-size="11" font-weight="400">in sync</text>
<text x="349.0" y="188.0" text-anchor="start" class="h" fill="#57606a" font-size="11" font-weight="400">out of sync</text>
<text x="445.0" y="188.0" text-anchor="start" class="h" fill="#57606a" font-size="11" font-weight="400">fixed</text>
</svg>
